<?xml version="1.0" encoding="UTF-8"?>
<!DOCTYPE svg PUBLIC "-//W3C//DTD SVG 1.1//EN" "http://www.w3.org/Graphics/SVG/1.1/DTD/svg11.dtd">
<svg version="1.1" xmlns="http://www.w3.org/2000/svg" xmlns:xlink="http://www.w3.org/1999/xlink" x="0" y="0" width="100" height="100" viewBox="0, 0, 100, 100">
  <g id="Layer_1">
    <path d="M100,0 L100,100 L0,100 L0,0 L100,0 z M45.571,79.157 Q44.589,79.157 43.879,79.575 Q43.169,79.993 42.793,80.682 Q42.563,81.1 42.479,81.643 Q42.396,82.187 42.396,82.834 L42.396,86.323 Q42.396,86.971 42.479,87.514 Q42.563,88.057 42.793,88.475 Q43.169,89.164 43.879,89.582 Q44.589,90 45.571,90 Q46.553,90 47.263,89.582 Q47.974,89.164 48.35,88.475 Q48.58,88.057 48.663,87.514 Q48.747,86.971 48.747,86.323 L48.747,82.834 Q48.747,82.187 48.663,81.643 Q48.58,81.1 48.35,80.682 Q47.974,79.993 47.263,79.575 Q46.553,79.157 45.571,79.157 z M45.571,81.288 Q46.052,81.288 46.334,81.591 Q46.616,81.894 46.616,82.5 L46.616,86.657 Q46.616,87.263 46.334,87.566 Q46.052,87.869 45.571,87.869 Q45.091,87.869 44.809,87.566 Q44.527,87.263 44.527,86.657 L44.527,82.5 Q44.527,81.894 44.809,81.591 Q45.091,81.288 45.571,81.288 z M53.176,79.157 Q52.528,79.157 51.964,79.387 Q51.4,79.617 50.972,80.024 Q50.543,80.432 50.293,81.006 Q50.042,81.581 50.042,82.249 Q50.042,83.315 50.616,84.056 Q51.191,84.798 52.194,85.174 L53.217,85.55 Q53.823,85.78 54.053,86.093 Q54.283,86.407 54.283,86.845 Q54.283,87.389 53.917,87.692 Q53.552,87.994 53.092,87.994 Q52.486,87.994 52.246,87.618 Q52.006,87.242 51.943,86.804 L49.938,86.804 Q49.958,87.597 50.23,88.193 Q50.502,88.788 50.93,89.185 Q51.358,89.582 51.922,89.791 Q52.486,90 53.113,90 Q53.802,90 54.387,89.749 Q54.972,89.499 55.39,89.06 Q55.808,88.621 56.048,88.047 Q56.288,87.472 56.288,86.804 Q56.288,85.864 55.839,85.07 Q55.39,84.276 54.199,83.816 L52.946,83.315 Q52.34,83.085 52.194,82.803 Q52.048,82.521 52.048,82.228 Q52.048,81.811 52.319,81.487 Q52.591,81.163 53.092,81.163 Q53.51,81.163 53.834,81.435 Q54.158,81.706 54.178,82.249 L56.184,82.249 Q56.184,81.602 55.954,81.027 Q55.724,80.453 55.327,80.045 Q54.931,79.638 54.377,79.398 Q53.823,79.157 53.176,79.157 z M59.798,79.283 L57.667,79.283 L57.667,89.875 L59.798,89.875 L59.798,79.283 z M37.653,75 L34.457,75 L34.457,89.875 L36.588,89.875 L36.588,84.067 L37.674,84.067 Q38.865,84.067 39.596,83.659 Q40.327,83.252 40.766,82.521 Q41.142,81.915 41.257,81.215 Q41.372,80.515 41.372,79.533 Q41.372,78.196 41.163,77.413 Q40.954,76.63 40.411,76.045 Q39.868,75.46 39.199,75.23 Q38.531,75 37.653,75 z M37.695,77.006 Q38.322,77.006 38.656,77.204 Q38.99,77.403 39.147,77.747 Q39.304,78.092 39.335,78.562 Q39.366,79.032 39.366,79.554 Q39.366,80.118 39.335,80.578 Q39.304,81.038 39.137,81.361 Q38.97,81.685 38.614,81.873 Q38.259,82.061 37.612,82.061 L36.588,82.061 L36.588,77.006 L37.695,77.006 z M64.278,76.065 L62.147,76.065 L62.147,79.283 L61.082,79.283 L61.082,80.954 L62.147,80.954 L62.147,87.389 Q62.147,87.806 62.283,88.256 Q62.419,88.705 62.711,89.06 Q63.004,89.415 63.495,89.645 Q63.986,89.875 64.717,89.875 L65.594,89.875 L65.594,87.869 Q65.239,87.869 64.988,87.848 Q64.738,87.827 64.581,87.723 Q64.424,87.618 64.351,87.409 Q64.278,87.201 64.278,86.825 L64.278,80.954 L65.594,80.954 L65.594,79.283 L64.278,79.283 L64.278,76.065 z M59.798,75 L57.667,75 L57.667,77.131 L59.798,77.131 L59.798,75 z M44,10 L42,10 C40.895,10 40,10.895 40,12 L40,30 L22,30 C20.895,30 20,30.895 20,32 L20,34 L40,34 L40,38 L20,38 L20,42 L40,42 L40,46 L20,46 L20,48 C20,49.105 20.895,50 22,50 L40,50 L40,68 C40,69.105 40.895,70 42,70 L44,70 L44,10 z M52,10 L48,10 L48,70 L52,70 L52,10 z M58,10 L56,10 L56,70 L58,70 C59.105,70 60,69.105 60,68 L60,50 L78,50 C79.105,50 80,49.105 80,48 L80,46 L60,46 L60,42 L80,42 L80,38 L60,38 L60,34 L80,34 L80,32 C80,30.895 79.105,30 78,30 L60,30 L60,12 C60,10.895 59.105,10 58,10 z" fill="#FFFFFF"/>
  </g>
</svg>
